<?xml version="1.0" encoding="UTF-8" standalone="no"?>
<!-- Created with Inkscape (http://www.inkscape.org/) -->

<svg
   width="96mm"
   height="96.000008mm"
   viewBox="0 0 96 96.000008"
   version="1.1"
   id="svg1"
   sodipodi:docname="logo.svg"
   inkscape:version="1.4.4 (dcaf3e7d9e, 2026-05-05)"
   xmlns:inkscape="http://www.inkscape.org/namespaces/inkscape"
   xmlns:sodipodi="http://sodipodi.sourceforge.net/DTD/sodipodi-0.dtd"
   xmlns="http://www.w3.org/2000/svg"
   xmlns:svg="http://www.w3.org/2000/svg">
  <sodipodi:namedview
     id="namedview1"
     pagecolor="#ffffff"
     bordercolor="#000000"
     borderopacity="0.25"
     inkscape:showpageshadow="2"
     inkscape:pageopacity="0.0"
     inkscape:pagecheckerboard="0"
     inkscape:deskcolor="#d1d1d1"
     inkscape:document-units="mm"
     inkscape:zoom="0.8775023"
     inkscape:cx="-34.757744"
     inkscape:cy="211.39546"
     inkscape:window-width="1512"
     inkscape:window-height="790"
     inkscape:window-x="0"
     inkscape:window-y="0"
     inkscape:window-maximized="1"
     inkscape:current-layer="layer1" />
  <defs
     id="defs1">
    <clipPath
       clipPathUnits="userSpaceOnUse"
       id="clipPath74">
      <path
         id="path75"
         style="fill:#306998;fill-opacity:1;stroke-width:0.132291"
         d="m 16,20 v 58 l 1.5,1.000001 1.5,0.999998 2.5,-1.43e-4 1.25,-0.999855 L 24,78 24.000028,46.700453 42.499674,79.99971 h 5.500439 l 2.49959,-2.499587 -17.625798,-29.52378 C 41.358336,47.512298 48.0002,40.49717 48.000113,32.000058 48.000145,23.163456 40.836657,15.999969 32.000058,16 h -5.29e-4 -7.999501 -4.000014 L 17,17 Z m 16.000058,4.000028 c 4.418298,-1.5e-5 8.000042,3.581729 8.000026,8.00003 1.6e-5,4.418298 -3.581728,8.000042 -8.000026,8.000026 -4.418301,1.6e-5 -8.000045,-3.581728 -8.00003,-8.000026 -1.6e-5,-4.418301 3.581729,-8.000046 8.00003,-8.00003 z" />
    </clipPath>
    <clipPath
       clipPathUnits="userSpaceOnUse"
       id="clipPath83">
      <path
         d="m 52.499755,16 -1.999877,0.499711 -1.999877,2.500106 v 52.999867 l 3.999754,6.000149 4.000272,1.999877 H 87.49969 l 3.00033,-1.999877 V 74.000077 L 87.49969,71.999684 H 62.499661 l -3.999754,-1.99988 -1.99988,-2.436542 V 18.999817 l -2.000393,-2.500106 z"
         style="fill:#b0bec5;fill-opacity:1;stroke-width:0.264583"
         id="path84" />
    </clipPath>
  </defs>
  <g
     id="layer1">
    <rect
       style="fill:#0d1117;fill-opacity:1;stroke-width:0.198438"
       id="rect3"
       width="96"
       height="96"
       x="0"
       y="5.5511151e-17"
       rx="3.75" />
    <path
       d="M 52.499756,16 50.499878,16.499711 48.5,18.999817 v 52.999866 l 3.999756,6.00015 4.000272,1.999878 H 87.49969 l 3.00033,-1.999878 V 74.000077 L 87.49969,71.999683 H 62.499662 L 58.499906,69.999805 56.500028,67.563261 V 18.999817 l -2.000394,-2.500106 z"
       style="fill:#b0bec5;fill-opacity:1;stroke-width:0.264583"
       id="path9" />
    <path
       id="path11"
       style="fill:#306998;fill-opacity:1;stroke-width:0.132291"
       d="m 21,20 v 58 l 1.5,1 1.5,1 2.5,-1.44e-4 L 27.75,79 29,78 l 2.8e-5,-31.299548 18.499646,33.299259 h 5.50044 L 55.499703,77.500122 37.873905,47.976343 C 46.358337,47.512299 53.000201,40.49717 53.000114,32.000057 53.000145,23.163456 45.836658,15.999969 37.000057,16 H 36.99954 29.000028 25.000014 L 22,17 Z m 16.000057,4.000028 c 4.4183,-1.5e-5 8.000044,3.581729 8.000028,8.000029 1.5e-5,4.4183 -3.581728,8.000043 -8.000028,8.000028 -4.4183,1.6e-5 -8.000044,-3.581728 -8.000029,-8.000028 -1.6e-5,-4.418301 3.581728,-8.000045 8.000029,-8.000029 z" />
    <g
       id="g74"
       clip-path="url(#clipPath74)" />
  </g>
</svg>
