<?xml version="1.0" encoding="UTF-8" standalone="no"?>
<!-- Created with Inkscape (http://www.inkscape.org/) -->

<svg
   width="96mm"
   height="96.000008mm"
   viewBox="0 0 96 96.000008"
   version="1.1"
   id="svg1"
   sodipodi:docname="logo-circle.svg"
   inkscape:version="1.4.4 (dcaf3e7d9e, 2026-05-05)"
   inkscape:export-filename="logo-circle.png"
   inkscape:export-xdpi="96"
   inkscape:export-ydpi="96"
   xmlns:inkscape="http://www.inkscape.org/namespaces/inkscape"
   xmlns:sodipodi="http://sodipodi.sourceforge.net/DTD/sodipodi-0.dtd"
   xmlns="http://www.w3.org/2000/svg"
   xmlns:svg="http://www.w3.org/2000/svg">
  <sodipodi:namedview
     id="namedview1"
     pagecolor="#ffffff"
     bordercolor="#000000"
     borderopacity="0.25"
     inkscape:showpageshadow="2"
     inkscape:pageopacity="0.0"
     inkscape:pagecheckerboard="0"
     inkscape:deskcolor="#d1d1d1"
     inkscape:document-units="mm"
     inkscape:zoom="0.90280526"
     inkscape:cx="26.029977"
     inkscape:cy="178.88686"
     inkscape:window-width="1512"
     inkscape:window-height="790"
     inkscape:window-x="0"
     inkscape:window-y="0"
     inkscape:window-maximized="1"
     inkscape:current-layer="layer1"
     inkscape:export-bgcolor="#ffffff00" />
  <defs
     id="defs1">
    <inkscape:path-effect
       effect="fillet_chamfer"
       id="path-effect1"
       is_visible="true"
       lpeversion="1"
       nodesatellites_param="F,0,0,1,0,0,0,1 @ F,0,0,1,0,0,0,1 @ F,0,0,1,0,0,0,1 @ F,0,0,1,0,0,0,1"
       radius="0"
       unit="px"
       method="auto"
       mode="F"
       chamfer_steps="1"
       flexible="false"
       use_knot_distance="true"
       apply_no_radius="true"
       apply_with_radius="true"
       only_selected="false"
       hide_knots="false" />
    <linearGradient
       id="swatch2"
       inkscape:swatch="solid">
      <stop
         style="stop-color:#307ab6;stop-opacity:1;"
         offset="0"
         id="stop2" />
    </linearGradient>
    <clipPath
       clipPathUnits="userSpaceOnUse"
       id="clipPath74">
      <path
         id="path75"
         style="fill:#306998;fill-opacity:1;stroke-width:0.132291"
         d="m 16,20 v 58 l 1.5,1.000001 1.5,0.999998 2.5,-1.43e-4 1.25,-0.999855 L 24,78 24.000028,46.700453 42.499674,79.99971 h 5.500439 l 2.49959,-2.499587 -17.625798,-29.52378 C 41.358336,47.512298 48.0002,40.49717 48.000113,32.000058 48.000145,23.163456 40.836657,15.999969 32.000058,16 h -5.29e-4 -7.999501 -4.000014 L 17,17 Z m 16.000058,4.000028 c 4.418298,-1.5e-5 8.000042,3.581729 8.000026,8.00003 1.6e-5,4.418298 -3.581728,8.000042 -8.000026,8.000026 -4.418301,1.6e-5 -8.000045,-3.581728 -8.00003,-8.000026 -1.6e-5,-4.418301 3.581729,-8.000046 8.00003,-8.00003 z" />
    </clipPath>
    <clipPath
       clipPathUnits="userSpaceOnUse"
       id="clipPath83">
      <path
         d="m 52.499755,16 -1.999877,0.499711 -1.999877,2.500106 v 52.999867 l 3.999754,6.000149 4.000272,1.999877 H 87.49969 l 3.00033,-1.999877 V 74.000077 L 87.49969,71.999684 H 62.499661 l -3.999754,-1.99988 -1.99988,-2.436542 V 18.999817 l -2.000393,-2.500106 z"
         style="fill:#b0bec5;fill-opacity:1;stroke-width:0.264583"
         id="path84" />
    </clipPath>
  </defs>
  <g
     id="layer1">
    <path
       style="fill:#162537;fill-opacity:1;stroke-width:0.198438"
       id="rect3"
       width="96"
       height="96"
       x="0"
       y="5.5511151e-17"
       inkscape:path-effect="#path-effect1"
       sodipodi:type="rect"
       d="M 48,0 C 74.592,0 96,21.408 96,48 96,74.592 74.592,96 48,96 21.408,96 0,74.592 0,48 0,21.408 21.408,0 48,0 Z"
       ry="48" />
    <rect
       style="mix-blend-mode:hard-light;fill:#1c334a;fill-opacity:0.148574;stroke-width:0.204003"
       id="rect1-3"
       width="59.028889"
       height="56.976139"
       x="16"
       y="21.023855" />
    <rect
       style="mix-blend-mode:normal;fill:#1c334a;fill-opacity:1;stroke-width:0.204003"
       id="rect1"
       width="59.028889"
       height="56.976139"
       x="18.951445"
       y="18.02511" />
    <path
       style="fill:#f2f2f2;fill-opacity:1;stroke-width:4.1888;stroke-dasharray:none;paint-order:stroke markers fill"
       d="M 55.495789,18.021287 77.955529,18 l 4.88e-4,49.150478 c -0.168499,-0.925163 0.274456,-1.362306 -0.09455,-2.239896 l -0.0526,-46.633851 z"
       id="path12"
       sodipodi:nodetypes="cccccc" />
    <path
       d="m 49.941431,24.022606 -1.475633,0.374627 -1.475632,1.874294 v 39.733258 l 2.951265,4.498228 2.951645,1.499281 H 75.76652 l 2.213827,-1.499281 V 67.504452 L 75.76652,66.004785 H 57.319972 L 54.368708,64.505504 52.893076,62.678861 V 26.271527 l -1.476013,-1.874294 z"
       style="mix-blend-mode:multiply;fill:#285176;fill-opacity:0.31051;stroke-width:0.196784"
       id="path9-1" />
    <path
       d="m 51.786083,22.523234 -1.475632,0.374627 -1.475632,1.874294 v 39.733258 l 2.951264,4.498228 2.951645,1.499281 H 77.611173 L 79.825,69.003641 V 66.00508 L 77.611173,64.505413 H 59.164625 L 56.213361,63.006132 54.737728,61.179489 V 24.772155 l -1.476012,-1.874294 z"
       style="fill:#316c9b;fill-opacity:1;stroke-width:0.196784"
       id="path9" />
    <path
       id="path11-3"
       style="mix-blend-mode:multiply;fill:#306998;fill-opacity:0.177971;stroke-width:4.41193;stroke-dasharray:none;paint-order:stroke markers fill"
       d="m 27.067917,27.02135 v 43.481788 l 1.106791,0.749686 1.106792,0.749686 1.844653,-1.08e-4 1.878992,-0.0043 -0.03434,-1.494916 -0.324771,-22.969838 0.609947,-0.38472 0.609947,0.440279 12.755067,24.413436 h 4.058561 l 1.62905,-0.308526 0.215299,-1.565382 -13.257214,-22.27977 c 6.260332,-0.347936 11.412929,-5.460874 11.412865,-11.83104 2.3e-5,-6.624676 -5.285636,-11.995042 -11.80582,-11.995019 h -1.475764 -4.427146 -2.951455 -2.951454 z m 11.916672,5.101191 c 3.260092,-1.1e-5 3.665667,0.119543 3.665655,3.43188 1.1e-5,3.312337 -2.345917,6.96481 -5.606009,6.964799 -3.260091,1.2e-5 -3.550673,-0.0025 -3.550662,-3.314849 0.0909,-8.115489 -1.344923,-7.051053 5.491016,-7.08183 z"
       sodipodi:nodetypes="ccccccccccccccccscccccccccc" />
    <path
       id="path11"
       style="fill:#307ab6;fill-opacity:1;stroke-width:0.0983911"
       d="m 28.543639,25.521978 v 43.481788 l 1.106791,0.749686 1.106792,0.749686 1.844653,-1.08e-4 1.878993,-0.0043 -0.03434,-1.494916 -0.324772,-22.969838 0.609947,-0.38472 0.609947,0.440279 12.755067,24.413436 h 4.058561 l 1.62905,-0.308526 0.2153,-1.565382 -13.257215,-22.279819 c 6.260332,-0.347887 11.412929,-5.460825 11.412865,-11.830991 2.3e-5,-6.624676 -5.285635,-11.995042 -11.80582,-11.995019 h -1.475764 -4.427146 -2.951455 -2.951454 z m 11.916673,5.101191 c 3.260091,-1.1e-5 3.665666,0.119543 3.665655,3.43188 1.1e-5,3.312337 -2.345918,6.96481 -5.606009,6.964799 -3.260092,1.2e-5 -3.550674,-0.0025 -3.550663,-3.314849 0.0909,-8.115489 -1.344923,-7.051053 5.491017,-7.08183 z"
       sodipodi:nodetypes="ccccccccccccccccscccccccccc" />
    <g
       id="g74"
       clip-path="url(#clipPath74)"
       transform="matrix(0.7378611,0,0,0.749686,13.048556,10.528258)" />
    <path
       style="fill:#f2f2f2;fill-opacity:1;stroke-width:4.1888;stroke-dasharray:none;paint-order:stroke markers fill"
       d="m 18.94182,18.023511 59.009498,-0.0016"
       id="path10" />
  </g>
</svg>
