<?xml version="1.0" encoding="UTF-8" standalone="no"?>
<!-- Created with Inkscape (http://www.inkscape.org/) -->

<svg
   width="210mm"
   height="297mm"
   viewBox="0 0 210 297"
   version="1.1"
   id="svg1"
   inkscape:version="1.4.4 (dcaf3e7d9e, 2026-05-05)"
   sodipodi:docname="drawing.svg"
   xmlns:inkscape="http://www.inkscape.org/namespaces/inkscape"
   xmlns:sodipodi="http://sodipodi.sourceforge.net/DTD/sodipodi-0.dtd"
   xmlns:xlink="http://www.w3.org/1999/xlink"
   xmlns="http://www.w3.org/2000/svg"
   xmlns:svg="http://www.w3.org/2000/svg">
  <sodipodi:namedview
     id="namedview1"
     pagecolor="#ffffff"
     bordercolor="#000000"
     borderopacity="0.25"
     inkscape:showpageshadow="2"
     inkscape:pageopacity="0.0"
     inkscape:pagecheckerboard="0"
     inkscape:deskcolor="#d1d1d1"
     inkscape:document-units="mm"
     showguides="false"
     inkscape:export-bgcolor="#ffffff00"
     inkscape:zoom="1.7370185"
     inkscape:cx="175.58823"
     inkscape:cy="137.30424"
     inkscape:window-width="1512"
     inkscape:window-height="790"
     inkscape:window-x="0"
     inkscape:window-y="0"
     inkscape:window-maximized="1"
     inkscape:current-layer="layer1" />
  <defs
     id="defs1">
    <inkscape:path-effect
       effect="fillet_chamfer"
       id="path-effect3"
       is_visible="true"
       lpeversion="1"
       nodesatellites_param="F,0,0,1,0,0,0,1 @ F,0,0,1,0,0,0,1 @ F,0,0,1,0,0,0,1 @ F,0,0,1,0,0,0,1"
       radius="0"
       unit="px"
       method="auto"
       mode="F"
       chamfer_steps="1"
       flexible="false"
       use_knot_distance="true"
       apply_no_radius="true"
       apply_with_radius="true"
       only_selected="false"
       hide_knots="false" />
    <clipPath
       clipPathUnits="userSpaceOnUse"
       id="clipPath67">
      <use
         x="0"
         y="0"
         xlink:href="#path9"
         id="use67"
         style="display:inline;fill:#00ccff" />
    </clipPath>
    <clipPath
       clipPathUnits="userSpaceOnUse"
       id="clipPath74">
      <path
         id="path75"
         style="fill:#306998;fill-opacity:1;stroke-width:0.132291"
         d="m 16,20 v 58 l 1.5,1.000001 1.5,0.999998 2.5,-1.43e-4 1.25,-0.999855 L 24,78 24.000028,46.700453 42.499674,79.99971 h 5.500439 l 2.49959,-2.499587 -17.625798,-29.52378 C 41.358336,47.512298 48.0002,40.49717 48.000113,32.000058 48.000145,23.163456 40.836657,15.999969 32.000058,16 h -5.29e-4 -7.999501 -4.000014 L 17,17 Z m 16.000058,4.000028 c 4.418298,-1.5e-5 8.000042,3.581729 8.000026,8.00003 1.6e-5,4.418298 -3.581728,8.000042 -8.000026,8.000026 -4.418301,1.6e-5 -8.000045,-3.581728 -8.00003,-8.000026 -1.6e-5,-4.418301 3.581729,-8.000046 8.00003,-8.00003 z"
         sodipodi:nodetypes="cccccccccccccscccccccccc" />
    </clipPath>
    <clipPath
       clipPathUnits="userSpaceOnUse"
       id="clipPath83">
      <path
         d="m 52.499755,16 -1.999877,0.499711 -1.999877,2.500106 v 52.999867 l 3.999754,6.000149 4.000272,1.999877 H 87.49969 l 3.00033,-1.999877 V 74.000077 L 87.49969,71.999684 H 62.499661 l -3.999754,-1.99988 -1.99988,-2.436542 V 18.999817 l -2.000393,-2.500106 z"
         style="fill:#b0bec5;fill-opacity:1;stroke-width:0.264583"
         id="path84" />
    </clipPath>
  </defs>
  <g
     inkscape:label="Layer 1"
     inkscape:groupmode="layer"
     id="layer1"
     inkscape:export-filename="layer1.png"
     inkscape:export-xdpi="600"
     inkscape:export-ydpi="600">
    <rect
       style="fill:#0d1117;stroke-width:0.198438;fill-opacity:1"
       id="rect3"
       width="96"
       height="96"
       x="0"
       y="5.5511151e-17"
       sodipodi:type="rect"
       rx="3.75" />
    <path
       id="path11"
       style="fill:#306998;fill-opacity:1;stroke-width:0.132291"
       d="m 16,20 v 58 l 1.5,1 1.5,1 2.5,-1.44e-4 L 22.75,79 24,78 l 2.8e-5,-31.299548 18.499646,33.299259 h 5.50044 L 50.499703,77.500122 32.873905,47.976343 C 41.358337,47.512299 48.000201,40.49717 48.000114,32.000057 48.000145,23.163456 40.836658,15.999969 32.000057,16 H 31.99954 24.000028 20.000014 L 17,17 Z m 16.000057,4.000028 c 4.4183,-1.5e-5 8.000044,3.581729 8.000028,8.000029 1.5e-5,4.4183 -3.581728,8.000043 -8.000028,8.000028 -4.4183,1.6e-5 -8.000044,-3.581728 -8.000029,-8.000028 -1.6e-5,-4.418301 3.581728,-8.000045 8.000029,-8.000029 z"
       sodipodi:nodetypes="cccccccccccccscccccccccc" />
    <path
       d="M 52.499756,16 50.499878,16.499711 48.5,18.999817 v 52.999866 l 3.999756,6.00015 4.000272,1.999878 H 87.49969 l 3.00033,-1.999878 V 74.000077 L 87.49969,71.999683 H 62.499662 L 58.499906,69.999805 56.500028,67.563261 V 18.999817 l -2.000394,-2.500106 z"
       style="fill:#b0bec5;stroke-width:0.264583;fill-opacity:1"
       id="path9" />
    <g
       id="g74"
       clip-path="url(#clipPath74)">
      <g
         id="g73">
        <path
           id="path73"
           style="fill:#306998;fill-opacity:1;stroke-width:0.132291"
           d="m 16,20 v 58 l 1.5,1 1.5,1 2.5,-1.44e-4 L 22.75,79 24,78 l 2.8e-5,-31.299548 18.499646,33.299259 h 5.50044 L 50.499703,77.500122 32.873905,47.976343 C 41.358337,47.512299 48.000201,40.49717 48.000114,32.000057 48.000145,23.163456 40.836658,15.999969 32.000057,16 H 31.99954 24.000028 20.000014 L 17,17 Z m 16.000057,4.000028 c 4.4183,-1.5e-5 8.000044,3.581729 8.000028,8.000029 1.5e-5,4.4183 -3.581728,8.000043 -8.000028,8.000028 -4.4183,1.6e-5 -8.000044,-3.581728 -8.000029,-8.000028 -1.6e-5,-4.418301 3.581728,-8.000045 8.000029,-8.000029 z"
           sodipodi:nodetypes="cccccccccccccscccccccccc" />
        <path
           style="fill:#ffd43b;fill-opacity:1;stroke-width:0.264583"
           d="m 41.624765,16.710672 c -0.904046,0.18081 -0.474678,0.04875 -1.721707,0.708938 -1.865532,0.987635 -3.245554,1.751984 -5.266393,2.329366 -0.43307,0.123735 -0.881404,0.187779 -1.316599,0.303831 -3.220482,0.858795 -0.419912,0.142815 -2.835748,0.911491 -0.366792,0.116706 -0.759556,0.153853 -1.114047,0.30383 -0.871482,0.368705 -1.890877,1.062204 -2.734471,1.519152 -0.398254,0.21572 -0.816537,0.39293 -1.215323,0.607661 -0.935507,0.503735 -1.810225,1.106957 -2.734474,1.620429 -0.519167,0.288426 -1.35898,0.671233 -1.721705,1.215321 -0.408501,0.612751 0.146825,0.04054 -0.202554,0.506383 -0.11253,0.15004 -0.421986,0.365723 -0.506384,0.506386 -0.08856,0.147606 -0.02429,0.35242 -0.101277,0.506384 -0.108869,0.217738 -0.296238,0.389921 -0.405107,0.60766 -0.187418,0.374835 -0.180465,0.878359 -0.405107,1.215321 -0.111723,0.167585 -0.441442,0.412835 -0.506384,0.607661 -0.08455,0.253635 0.0255,0.311848 -0.101277,0.607661 -0.130331,0.304106 -0.367509,0.532463 -0.506384,0.810215 -0.109911,0.219821 -0.06622,0.504446 -0.202554,0.708937 -0.06752,0.101278 -0.217761,0.116486 -0.30383,0.202555 -0.08607,0.08607 -0.116485,0.21776 -0.202554,0.303829 -0.414063,0.414065 -0.95608,0.666422 -1.417875,1.012769 -0.221437,0.166077 -0.668115,0.546817 -0.911491,0.607661 -0.192547,0.04813 -0.504077,0 -0.708938,0 -1.013913,0 -1.04922,0.131667 -1.721705,-0.708938 -0.05965,-0.07456 -0.159852,-0.11715 -0.202554,-0.202554 -0.194572,-0.389144 -0.410355,-1.289577 -0.506384,-1.721705 -0.02197,-0.09887 0.03203,-0.207751 0,-0.303832 -0.03849,-0.115472 -0.159815,-0.189859 -0.202553,-0.303829 -0.398459,-1.062558 0.06877,-4.092191 0.405107,-5.063841 0.148156,-0.428006 0.411667,-0.807 0.607661,-1.215321 0.209162,-0.435755 0.385164,-0.887499 0.607661,-1.316598 0.362447,-0.699007 0.685667,-1.442918 1.215321,-2.025536 1.215336,-1.33687 3.170778,-1.839179 4.76001,-2.531921 2.598199,-1.132548 2.966104,-1.475522 6.076608,-2.53192 1.439287,-0.488814 2.970508,-0.441789 4.456178,-0.506384 1.213437,-0.05276 2.526715,-0.253842 3.747243,-0.101276 0.522248,0.06528 0.981826,0.101276 1.51915,0.101276 0.841915,0 2.388418,-0.125194 3.139583,0 0.257646,0.04294 0.537342,0.157075 0.810215,0.202554 0.225647,0.03761 0.609129,-0.100543 0.810212,0 0.08541,0.0427 0.11715,0.159852 0.202555,0.202554 0.06039,0.03019 0.142163,-0.0302 0.202554,0 0.147704,0.07385 0.162015,0.162015 0.202552,0.202553 0.03177,0.03177 0.255733,-0.006 0.303832,0 0.236868,0.02961 0.472625,0.06752 0.708937,0.101277 z"
           id="path67" />
        <path
           style="fill:#ffd43b;fill-opacity:1;stroke-width:0.264583"
           d="m 12.96343,48.916695 c 0.297786,-0.476458 0.9312,-0.630716 1.417876,-0.911492 2.14721,-1.238774 4.208642,-2.656917 6.481715,-3.645964 2.302031,-1.001649 6.920102,-2.152232 9.823848,-2.937028 0.734097,-0.198403 1.411396,-0.470464 2.126814,-0.708938 0.841788,-0.280596 1.700853,-0.498562 2.531919,-0.810215 1.20064,-0.450239 0.535678,-0.326668 1.519153,-0.60766 0.975291,-0.278654 2.027018,-0.456486 2.937029,-0.91149 0.299026,-0.149516 0.350104,-0.334682 0.60766,-0.506383 0.125616,-0.08375 0.31133,-0.08424 0.405106,-0.202555 0.102392,-0.12919 0.07883,-0.211039 0.202555,-0.303831 0.02741,-0.02056 0.341762,-0.198255 0.405106,-0.303829 0.372766,-0.621279 0.462727,-1.561394 0.607661,-2.228091 0.08177,-0.376126 0.225327,-0.737224 0.303831,-1.114044 0.25368,-1.217673 0.410996,-2.507194 0.506384,-3.747243 0.01802,-0.234183 -0.208955,-1.715305 -0.101278,-1.822982 0.04774,-0.04774 0.135036,0 0.202555,0 0.360635,0 0.758274,-0.03745 1.114044,0 0.963633,0.101436 1.360731,0.08852 2.126813,0.506383 0.148183,0.08083 0.254132,0.228344 0.405106,0.303832 0.257988,0.128992 0.536577,0.212632 0.810215,0.303831 0.03203,0.01067 0.07741,-0.02387 0.101278,0 0.05064,0.05064 -0.05064,0.253191 0,0.303829 0.05713,0.05713 0.324167,-0.02698 0.405106,0 0.178244,0.05941 0.34907,0.251394 0.506386,0.303832 0.06405,0.02135 0.13705,-0.01638 0.202552,0 0.560275,0.140072 0.996727,0.980686 1.215321,1.417873 0.06752,0.135038 0.185883,0.255058 0.202554,0.405109 0.03981,0.358312 -1.028857,2.958606 -1.215321,3.443412 -1.000578,2.601506 -0.04075,0.205893 -0.911492,1.822981 -0.472152,0.876853 -0.811258,1.824377 -1.417876,2.633197 -2.409679,3.212907 0.923719,-1.446863 -1.417873,1.519153 -0.796708,1.009161 -1.386541,2.15777 -2.22809,3.13958 -0.708928,0.827082 -1.583637,1.537031 -2.329366,2.329365 -0.586184,0.622822 -1.117155,1.319708 -1.721707,1.924259 -0.759619,0.759622 -0.230394,0.08304 -1.012767,0.708938 -0.186404,0.149122 -0.318682,0.358905 -0.506386,0.506386 -0.692266,0.543923 -1.480383,0.867974 -2.228088,1.316599 -1.013573,0.608142 -2.055928,1.240081 -3.13958,1.721704 -0.501517,0.222896 -1.534104,0.463122 -2.025536,0.607661 -0.204835,0.06024 -0.396634,0.170087 -0.607661,0.202554 -0.891487,0.137152 -2.568225,0 -3.544689,0 -1.394295,0 -2.799488,0.112435 -4.152348,-0.303831 -0.144299,-0.0444 -0.263746,-0.149543 -0.405108,-0.202555 -0.449461,-0.168547 -0.964458,-0.253968 -1.417875,-0.405106 -0.285584,-0.09519 -0.625907,-0.309912 -0.911491,-0.405106 -0.264098,-0.08803 -0.550387,-0.102621 -0.810215,-0.202555 -0.301506,-0.115964 -1.28211,-0.787222 -1.620428,-1.012766 -0.09283,-0.06189 -0.280671,-0.36364 -0.405108,-0.405109 -0.02044,-0.0068 -0.371411,0.0337 -0.405107,0 -0.05338,-0.05338 -0.0479,-0.149177 -0.101276,-0.202555 -0.293152,-0.293155 -0.79839,0.05655 -1.114045,-0.101274 -0.260054,-0.130027 -0.400914,-0.453649 -0.708938,-0.607661 -0.144027,-0.07201 -0.184312,0.08995 -0.30383,-0.101277 -0.144252,-0.230804 -0.54936,-0.478135 -0.405108,-0.708938 z"
           id="path68"
           sodipodi:nodetypes="sssssssssssssssssssssssssssssssssssssssssssssssssssssss" />
        <path
           style="fill:#ffd43b;fill-opacity:1;stroke-width:0.264583"
           d="m 30.484318,63.500555 c 0.798614,-1.541667 0.124208,-0.747977 2.734474,-3.544689 1.941443,-2.08012 3.917579,-3.938791 6.481714,-5.165117 0.531874,-0.254375 1.054812,-0.542581 1.620428,-0.708937 1.104934,-0.324983 2.207141,-0.303832 3.342134,-0.303832 0.575398,0 1.585688,-0.136017 2.025537,0.303832 0.05338,0.05338 0.05412,0.143608 0.101277,0.202554 0.178945,0.223681 0.45584,0.364747 0.60766,0.607661 0.274286,0.438856 0.585285,1.282451 0.405107,1.822981 -0.0578,0.173408 -0.534218,0.813568 -0.607661,0.911493 -0.226756,0.302339 -0.567949,0.519496 -0.810212,0.810212 -0.383797,0.460555 -0.741836,0.952614 -1.114047,1.417876 -0.06669,0.08336 -0.0258,0.228343 -0.101277,0.303831 -0.116459,0.116459 -0.387731,0.123452 -0.506384,0.202552 -0.25319,0.168796 -0.281323,0.33759 -0.506383,0.506386 -0.06039,0.04529 -0.149177,0.0479 -0.202554,0.101275 -0.02387,0.02387 0.02387,0.07741 0,0.101277 -0.01865,0.01865 -0.285168,0.08262 -0.303829,0.101277 -0.02387,0.02386 0.02386,0.07741 0,0.101277 -0.135324,0.13533 -0.503645,0.199814 -0.607661,0.303832 -0.02387,0.02387 0.02386,0.0774 0,0.101274 -0.04774,0.04774 -0.154813,-0.04774 -0.202554,0 -0.284054,0.284057 0.425585,-0.113561 -0.101278,0.202555 -0.267467,0.16048 -0.547092,0.348512 -0.810215,0.506383 -0.129458,0.07768 -0.287215,0.108241 -0.405106,0.202555 -0.05895,0.04716 -0.0479,0.149174 -0.101277,0.202554 -0.08607,0.08607 -0.211413,0.123338 -0.303829,0.202552 -0.289991,0.248563 -0.514612,0.568357 -0.810215,0.810215 -0.804601,0.65831 -0.541893,0.305406 -1.215321,0.911492 -0.177435,0.159689 -0.318683,0.358902 -0.506386,0.506383 -0.84777,0.666105 -2.049889,1.217536 -3.13958,1.316599 -0.590767,0.0537 -1.476791,0.1339 -2.025537,-0.101277 -1.242885,-0.532665 0.308179,0.103449 -0.708937,-0.405107 -0.162603,-0.0813 -0.348539,-0.112358 -0.506384,-0.202554 -0.233852,-0.13363 -0.219406,-0.320683 -0.405106,-0.506383 -0.02387,-0.02387 -0.07741,0.02387 -0.101277,0 -0.04774,-0.04774 0.04774,-0.154813 0,-0.202555 -0.08607,-0.08607 -0.232206,-0.104139 -0.303832,-0.202554 -0.271064,-0.372446 -0.116483,-0.21776 -0.405106,-0.506384 -0.06752,-0.06752 -0.156184,-0.119083 -0.202554,-0.202551 -0.12486,-0.224748 -0.06977,-0.602549 -0.303829,-0.708938 -0.253432,-0.115197 -0.538462,0.142163 -0.810215,0.202552 -0.09886,0.02196 -0.405107,0 -0.303832,0 0.456634,0 0.860567,0.286773 1.114047,-0.202552 z"
           id="path69"
           sodipodi:nodetypes="ssssssssssssssssssssssssssssssssssssssssssss" />
        <path
           style="fill:#ffd43b;fill-opacity:1;stroke-width:0.264583"
           d="m 36.662201,71.602697 c 0.714433,-1.540205 2.637372,-1.925929 4.152349,-2.53192 0.366877,-0.146751 0.747168,-0.258355 1.114044,-0.405106 0.308708,-0.123483 0.588047,-0.328096 0.911493,-0.405109 0.395456,-0.09415 0.811593,-0.05378 1.215321,-0.101274 0.170958,-0.02011 0.3351,-0.08415 0.506383,-0.101277 0.270505,-0.02705 1.633569,-0.176274 1.822985,0.202551 0.281921,0.563849 -0.5284,1.439892 -0.810215,1.721708 -0.885119,0.885118 -1.796505,1.816362 -3.038306,2.126813 -0.685647,0.17141 -2.489274,0.201486 -3.240857,0.101275 -1.746811,-0.232908 -0.220703,-0.04777 -1.114044,-0.405107 -0.335812,-0.134326 -1.659354,0.0997 -1.519153,-0.202554 z"
           id="path70"
           sodipodi:nodetypes="ssssssssssss" />
        <path
           style="fill:#ffd43b;fill-opacity:1;stroke-width:0.264583"
           d="m 51.549892,78.590798 c -0.536068,-2.214803 -0.09386,-1.620391 -4.456179,-2.53192 -1.815835,-0.379428 -4.589642,0.741122 -5.975331,2.126811 -0.07438,0.07438 -0.744167,0.981948 -0.810215,1.114047 -0.06225,0.124497 -0.03463,0.282911 -0.101277,0.405106 -0.139063,0.254944 -0.356971,0.459917 -0.506384,0.708938 -0.279884,0.466471 -0.05872,1.127241 0.202552,1.519152 0.235635,0.353452 0.379423,0.655201 0.708938,0.91149 1.719617,1.337479 6.100149,1.463768 8.102145,0.911492 0.495686,-0.136742 0.944314,-0.407307 1.417875,-0.60766 0.789046,-0.333828 1.087263,-0.270354 1.519153,-0.810215 0.09431,-0.117891 0.154811,-0.26188 0.202552,-0.405107 0.04098,-0.122928 0.04276,-2.519174 0,-2.633196 -0.09027,-0.240732 -0.243347,-0.459053 -0.303829,-0.708938 z"
           id="path71"
           sodipodi:nodetypes="ssssssssssssss" />
        <path
           style="fill:#ffd43b;fill-opacity:1;stroke-width:0.264583"
           d="m 15.394074,83.148254 c -1.975208,0.30151 -3.934604,-2.562299 -3.848519,-4.456179 0.09711,-2.136365 0.551745,-4.282046 1.316599,-6.279163 0.92635,-2.418802 3.56089,-4.830307 6.076608,-5.570223 0.851595,-0.25047 2.226536,-0.316596 3.139581,-0.202554 0.01993,0.0025 1.302485,0.499327 1.316598,0.506383 0.0854,0.0427 0.114789,0.164942 0.202554,0.202555 0.534446,0.229047 0.611721,0.05673 0.911491,0.506383 0.07788,0.116827 0,0.564423 0,0.708938 0,1.053259 -0.982749,1.891554 -1.519152,2.734474 -0.515615,0.810249 -0.891514,1.68175 -1.316599,2.53192 -0.455253,0.910508 -0.858123,1.883222 -1.215321,2.835751 -0.114633,0.305686 -0.553681,1.650391 -0.810215,2.126811 -0.115414,0.214341 -0.286882,0.394858 -0.405107,0.60766 -0.0164,0.02952 -0.09017,0.495282 -0.101277,0.506386 -0.05338,0.05338 -0.149176,0.0479 -0.202553,0.101277 -0.01866,0.01865 -0.08262,0.28517 -0.101277,0.303829 -0.123352,0.123356 -0.226274,0.04744 -0.30383,0.202555 -0.0151,0.03019 0.02387,0.0774 0,0.101277 -0.191504,0.191508 -1.291375,-0.236186 -1.620429,0.202552 -0.06405,0.0854 -0.04635,0.212288 -0.101277,0.303831 -0.04913,0.08188 -0.149588,0.123106 -0.202554,0.202555 -0.06275,0.09413 0.05109,0.302919 0,0.405106 -0.09896,0.197924 -0.365702,0.330531 -0.506384,0.506383 -0.240452,0.300567 -0.328433,0.85341 -0.708937,0.911493 z"
           id="path72"
           sodipodi:nodetypes="sssssssssssssssssssssssss" />
      </g>
    </g>
    <g
       id="g82"
       clip-path="url(#clipPath83)">
      <path
         style="fill:#ce422b;fill-opacity:1;stroke-width:0.264583"
         d="m 54.041074,15.7022 c -0.06642,-0.01328 -0.13153,-0.03985 -0.199266,-0.03985 -0.169085,0 -0.246811,0.231894 -0.35868,0.358679 -0.105838,0.119949 -0.225848,0.22851 -0.318828,0.35868 -0.242334,0.339268 -0.425548,0.717094 -0.637651,1.076039 -0.0011,0.0016 -0.290785,0.426575 -0.199268,0.518093 0.03758,0.03757 0.106275,0 0.159414,0 0.11956,0 0.23912,0 0.35868,0 1.00481,0 -0.370015,-0.01318 0.637653,0.03985 0.185725,0.0098 0.371962,0 0.557946,0 0.06642,0 0.139856,-0.0297 0.199265,0 0.01614,0.0081 -0.0069,0.179863 -0.03985,0.23912 -0.480343,0.864617 0.132535,-0.424487 -0.278974,0.398533 -0.03985,0.07971 -0.07971,0.159413 -0.11956,0.23912 -0.07162,0.143231 0.06497,0.04998 -0.11956,0.398533 -0.07249,0.136918 -0.166217,0.261837 -0.23912,0.398533 -0.03366,0.06312 -0.05708,0.131398 -0.07971,0.199266 -0.02521,0.07562 -0.05636,0.295481 0,0.23912 0.03721,-0.03721 -0.117459,-0.591494 -0.11956,-0.5978 -0.01,-0.02989 -0.142761,-0.38188 -0.199268,-0.438386 -0.0094,-0.0094 0,0.02657 0,0.03985 0,0.08591 -0.02233,0.176927 0.03985,0.239119 0.111842,0.111842 0.389565,0.331777 0.438386,0.47824 0.02522,0.07562 0,0.159413 0,0.23912 0,0.211333 0.01259,0.0293 -0.03985,0.239119 -0.0076,0.03042 0.02077,0.138633 0,0.159414 -0.06015,0.06015 -0.142364,0.09619 -0.199268,0.159413 -0.128167,0.142408 -0.208955,0.321282 -0.318826,0.478239 -0.03809,0.05442 -0.07807,0.107547 -0.119559,0.159414 -0.01175,0.01467 -0.03986,0.02107 -0.03986,0.03985 0,0.01328 0.03046,-0.0094 0.03986,0 0.01924,0.01922 -0.02265,0.14809 0,0.159413 0.199607,0.0998 0.827653,-0.297502 0.876773,-0.199266 0.02672,0.05345 -0.01873,0.398533 0,0.398533 0.01879,0 0.02106,-0.03985 0.03985,-0.03985 0.01328,0 -0.0094,0.03046 0,0.03985 0.0094,0.0094 0.03046,0.0094 0.03985,0 0.0177,-0.01769 2.4e-5,-0.139481 0.07971,-0.11956 0.334174,0.08354 0.642982,0.403863 0.876773,0.637652 0.156189,0.156189 0.282197,0.322051 0.438386,0.47824 0.01328,0.01328 0.02657,0.05314 0.03985,0.03985 0.02069,-0.02069 -0.136253,-0.494932 0.07971,-0.278973 0.01672,0.01673 0.270142,0.36751 0.358679,0.278973 0.06464,-0.06463 -0.06659,-0.610917 -0.03985,-0.637652 0.0781,-0.0781 0.528458,0.124742 0.5978,0.159413 0.06739,0.03369 0.358679,0.302474 0.358679,0.07971 0,-0.159413 0,-0.318826 0,-0.478239 0,-0.02657 -0.02212,-0.06497 0,-0.07971 0.06103,-0.04069 0.470226,-0.0053 0.518094,0 0.114483,0.01272 0.181052,0.116136 0.199266,0.07971 0.07015,-0.140293 -0.05429,-0.474793 0,-0.637653 0.03042,-0.09125 0.388252,-0.03428 0.438388,-0.03985 0.05444,-0.006 0.105704,-0.02911 0.159412,-0.03985 0.01302,-0.0026 0.04925,0.0094 0.03985,0 -0.01633,-0.01633 -0.314566,-0.252505 -0.35868,-0.278973 -1.35e-4,-8e-5 -0.555075,-0.202139 -0.438385,-0.318826 0.04999,-0.04998 0.372493,-0.265953 0.398531,-0.278973 0.07515,-0.03757 0.160451,-0.05021 0.23912,-0.07971 0.03934,-0.01475 0.16157,-0.03985 0.11956,-0.03985 -0.06642,0 -0.134827,0.01611 -0.199266,0 -0.01077,-0.0027 -0.423558,-0.147365 -0.438386,-0.199266 -0.05109,-0.178827 0.0098,-0.372222 0,-0.557947 -0.0077,-0.146528 -0.03171,-0.291881 -0.03985,-0.438386 -0.0052,-0.09285 0.01413,-0.187064 0,-0.278973 -0.07537,-0.489889 -0.63096,-1.412512 -0.916625,-1.793399 -0.156697,-0.208927 -0.332298,-0.307928 -0.518094,-0.478239 -0.18606,-0.170556 -0.339039,-0.41355 -0.597799,-0.47824 -0.143233,-0.03581 -0.684827,0.05612 -0.797066,0 -0.07011,-0.03506 -0.0797,-0.09197 -0.0797,-0.159413 z"
         id="path78" />
      <path
         style="fill:#ce422b;fill-opacity:1;stroke-width:0.264583"
         d="m 47.385573,18.571637 c 0.290536,0.257116 0.638204,0.414861 0.956479,0.637653 0.085,0.0595 0.152792,0.141714 0.23912,0.199266 0.02212,0.01474 0.06092,-0.01879 0.07971,0 0.0094,0.0094 -0.0059,0.02797 0,0.03985 0.0024,0.005 0.08265,0.09816 0.03985,0.11956 -0.114615,0.05731 -0.725562,-0.03297 -0.318826,0.11956 0.06342,0.02378 0.13262,0.02774 0.199266,0.03985 0.184713,0.03358 0.212288,0.02115 0.35868,0.07971 0.01643,0.0066 0.194048,0.09647 0.159411,0.11956 -0.09549,0.06366 -0.245475,0.119559 -0.358677,0.119559 -0.05314,0 -0.212553,0 -0.159414,0 0.380899,0 0.765262,0.05901 1.115891,0.199267 0.01233,0.0049 0.03391,-0.01188 0.03985,0 0.06257,0.125134 -0.211625,0.256523 -0.278974,0.278973 -0.03781,0.0126 -0.11956,-0.03985 -0.11956,0 0,0.04201 0.07837,-0.03162 0.11956,-0.03985 0.05818,-0.01164 0.174656,0 0.23912,0 0.01328,0 0.03985,-0.01328 0.03985,0 0,0.107813 -0.293399,0.133986 -0.35868,0.199266 -0.04697,0.04697 0.133117,-0.006 0.199266,0 0.304509,0.02768 0.356036,0.07838 0.597799,0.199267 0.01188,0.0059 0.03392,-0.01188 0.03985,0 0.04979,0.09957 -0.05518,0.2616 -0.159414,0.278973 -0.161049,0.02684 -0.358679,-0.02146 -0.358679,0 0,6.35e-4 0.169923,-0.05453 0.199268,-0.03985 0.05998,0.02999 -0.266256,0.132279 -0.199268,0.199267 0.05054,0.05054 0.347188,-0.06284 0.358679,-0.03985 0.07251,0.145026 -0.296042,0.261903 -0.199265,0.358679 0.08414,0.08414 0.263464,-0.167167 0.358679,-0.119559 0.07914,0.03957 -0.11903,0.158883 -0.119559,0.159413 -0.01879,0.01879 0,0.05314 0,0.07971 0,0.01328 -0.01328,0.03985 0,0.03985 0.01879,0 0.02305,-0.03145 0.03985,-0.03985 0.03757,-0.01879 0.07837,-0.03161 0.11956,-0.03985 0.298021,-0.0596 -0.08431,0.194667 -0.03986,0.23912 0.05056,0.05056 0.149003,-0.12997 0.159415,-0.11956 0.07468,0.07468 -0.146487,0.17234 -0.07971,0.23912 0.05695,0.05695 0.09467,-0.144447 0.11956,-0.11956 0.10164,0.101639 -0.638776,0.789718 -0.557945,0.797066 0.633425,0.05758 0.887163,0.0534 1.474573,0 0.09355,-0.0085 0.185761,-0.0282 0.278971,-0.03985 0.01318,-0.0016 0.05091,-0.0074 0.03985,0 -0.320201,0.213467 -0.679283,0.374 -0.996333,0.5978 -0.08476,0.05983 -0.271928,0.100836 -0.23912,0.199266 0.02024,0.06075 0.678844,-0.259715 0.71736,-0.278973 0.02657,-0.01328 -0.05499,0.02338 -0.07971,0.03985 -0.214617,0.143077 -0.423037,0.295308 -0.637654,0.438386 -0.06445,0.04297 -0.132011,0.08113 -0.199266,0.11956 -0.0258,0.01474 -0.108524,0.03265 -0.0797,0.03985 0.221932,0.05548 0.501068,-0.081 0.677505,-0.159413 0.09787,-0.0435 0.188151,-0.102649 0.278974,-0.159413 0.01593,-0.01 0.05864,-0.03985 0.03985,-0.03985 -0.501674,0 -0.273521,0.427486 -0.35868,0.5978 -0.02143,0.04284 -0.05829,0.07672 -0.07971,0.11956 -0.0141,0.02818 -0.110773,0.136113 -0.07971,0.159413 0.145077,0.108807 0.33709,0.08636 0.278972,0.318826 -0.0381,0.15242 -0.248605,0.518843 -0.278972,0.5978 -0.08317,0.216249 0.229471,0.177513 0.11956,0.318826 -0.126875,0.163126 -0.323754,0.266437 -0.438388,0.438387 -0.02657,0.03985 0.01328,0.07971 0,0.119559 -0.0055,0.01658 -0.05786,0.08354 -0.03985,0.11956 0.06862,0.137251 0.400957,-0.01092 0.318825,0.358679 -0.09074,0.408334 -0.09495,0.28367 -0.398534,0.717359 -0.0824,0.117719 -0.149354,0.246476 -0.23912,0.35868 -0.01855,0.0232 -0.106275,0.02657 -0.07971,0.03985 0.03818,0.0191 1.036185,-0.01741 1.036185,0 0,0.121658 -0.670587,0.551027 -0.757211,0.637654 -0.05477,0.05477 -0.0766,0.134813 -0.11956,0.199266 -0.01043,0.01564 -0.03985,0.02106 -0.03985,0.03985 0,0.01328 0.02657,0 0.03985,0 0.09083,0 0.417634,-0.02074 0.478239,0.03985 0.01842,0.01842 -0.01204,0.0955 0,0.11956 0.03314,0.06628 0.09407,0.122793 0.11956,0.199269 0.04868,0.146047 -0.04501,0.36641 -0.11956,0.478239 -0.03684,0.05527 -0.178969,0.129707 -0.119559,0.159412 0.239508,0.119755 1.167571,0.171241 1.23545,0.239119 0.02101,0.02101 -0.05452,0.0241 -0.07971,0.03985 -0.08123,0.05077 -0.160358,0.104886 -0.239119,0.159414 -0.321289,0.22243 -0.161248,0.199265 -0.398534,0.199265 -0.02657,0 0.05314,0 0.07971,0 0.09299,0 0.185981,0 0.278971,0 0.02657,0 0.08958,-0.02466 0.07971,0 -0.03159,0.07898 -0.113747,0.127503 -0.159414,0.199266 -0.04785,0.07518 -0.07265,0.163349 -0.11956,0.23912 -0.833739,1.346811 0.03086,-0.221123 -0.757214,1.355013 -0.05605,0.112094 -0.143219,0.206732 -0.199265,0.318826 -0.0479,0.0958 0.212206,0.0297 0.318825,0.03985 0.08686,0.0083 0.879922,0.043 1.036188,0.199266 0.05059,0.05059 -0.03391,0.144309 -0.07971,0.199265 -0.40614,0.487371 -0.233949,0.159978 -0.677505,0.637654 -0.100518,0.108252 -0.192003,0.272455 -0.159414,0.278974 0.329573,0.06591 1.3335,-0.101219 1.355013,-0.07971 0.0091,0.0091 -0.166267,0.133926 -0.278974,0.239119 -0.151077,0.141007 -0.323752,0.266438 -0.438385,0.438389 -0.0074,0.01106 0.0094,0.03046 0,0.03985 -0.04964,0.04964 -0.182526,0.05141 -0.23912,0.07971 -0.06928,0.03464 -0.126738,0.09236 -0.199266,0.11956 -0.118253,0.04434 -0.70916,0 -0.836919,0 -0.06419,0 -0.28117,-0.02585 -0.35868,0 -0.125293,0.04176 -0.205084,0.138602 -0.318828,0.199266 -0.141632,0.07554 -0.292928,0.131387 -0.438386,0.199266 -0.07614,0.03553 -0.17971,0.139118 -0.239119,0.07971 -0.02233,-0.02233 -0.02289,-0.06077 -0.07971,-0.07971 -0.09335,-0.03111 -0.498467,0.07911 -0.557945,-0.03985 -0.05941,-0.118822 0.01429,-0.266459 0,-0.398534 -0.04039,-0.373562 -0.112811,-0.743053 -0.159415,-1.115893 -0.0844,-0.675233 -0.110974,-1.354352 -0.159414,-2.032516 -0.01902,-0.266338 -0.06403,-0.530514 -0.0797,-0.797068 -0.04528,-0.76967 -0.04959,-1.541836 -0.11956,-2.31149 -0.143923,-1.583142 -0.757214,-3.104999 -0.757214,-4.70269 0,-0.297712 0.283853,-1.063485 0.35868,-1.394866 0.04763,-0.210943 0.06909,-0.427369 0.11956,-0.637652 0.113935,-0.474724 0.123997,-0.225881 0.199268,-0.677506 0.03417,-0.205043 0.01527,-0.536029 0.03985,-0.757213 0.01209,-0.108876 0.06881,-0.209824 0.07971,-0.318826 0.03879,-0.387903 0.01558,-0.847379 -0.03985,-1.235453 z"
         id="path79" />
      <path
         style="fill:#ce422b;fill-opacity:1;stroke-width:0.264583"
         d="m 57.468457,36.585329 c -1.525593,-0.573381 -1.32847,1.519751 -2.311493,1.912958 -0.385532,0.154213 -0.820713,0.139182 -1.23545,0.159412 -0.135316,0.0066 -0.27001,-0.03686 -0.398534,-0.07971 -0.05037,-0.0168 -0.150125,-0.190754 -0.23912,-0.11956 -0.23069,0.184552 -0.330356,0.524367 -0.398531,0.797065 -0.0065,0.02577 0.01879,0.06092 0,0.07971 -0.03001,0.03001 -0.667959,-0.04282 -0.797068,-0.07971 -0.0034,-0.0011 -0.268632,-0.169754 -0.278971,-0.159411 -0.0094,0.0094 0.0059,0.02797 0,0.03985 -0.08114,0.162274 -0.21363,0.30585 -0.398534,0.358679 -0.07405,0.02117 -0.64384,-0.03366 -0.677506,0 -0.04197,0.04197 0.0065,0.37538 -0.03985,0.398534 -0.02376,0.01188 -0.05314,0 -0.07971,0 -0.11956,0 -0.241686,0.02463 -0.358679,0 -0.330483,-0.06958 -0.62238,-0.291261 -0.916628,-0.438385 -0.0168,-0.0084 0.03145,0.02305 0.03985,0.03985 0.03199,0.06399 0.04973,0.134313 0.07971,0.199269 0.04979,0.107883 0.106278,0.21255 0.159414,0.318825 0.01762,0.03522 0.1481,0.290288 0.07971,0.35868 -0.01879,0.01879 -0.0713,-0.02522 -0.07971,0 -0.05925,0.177755 0.0505,0.377232 -0.03985,0.557945 -0.08904,0.178081 -0.652624,-0.03844 -0.797066,-0.0797 -0.04605,-0.01315 -0.07166,-0.07971 -0.119559,-0.07971 -0.03975,0 0.09068,0.82595 0.03985,0.876771 -0.0083,0.0083 -0.339873,0.01466 -0.398534,0 -0.02882,-0.0072 -0.05,-0.03985 -0.07971,-0.03985 -0.03541,0 -0.304826,0.857745 -0.35868,0.95648 -0.177601,0.325601 -0.604454,0.556416 -0.956479,0.637651 -0.04825,0.01114 -0.401593,0.04905 -0.47824,0.07971 -0.01233,0.0049 0.0046,0.02737 0,0.03985 -0.195061,0.536418 -0.327758,0.85082 -0.398534,1.434719 -0.0489,0.403407 -0.185274,0.949356 0.11956,1.315159 0.237324,0.284786 0.697707,0.474199 1.07604,0.398534 0.167084,-0.03342 0.301521,-0.10916 0.478239,-0.07971 0.502716,0.08379 0.985467,0.253614 1.434719,0.47824 0.103,0.0515 -0.02437,-0.590053 0.11956,-0.518091 0.18252,0.09126 0.402545,0.305183 0.557945,0.438385 0.369285,0.316529 0.0826,-0.133808 0.278975,-0.199266 0.195524,-0.06517 0.119102,0.07925 0.159414,0.11956 0.04722,0.04722 0.284911,-0.05566 0.358679,-0.03985 0.06247,0.01339 0.498875,0.225015 0.5978,0.278974 0.201636,0.109985 0.305382,0.199739 0.318825,0.159412 0.0078,-0.02342 -0.0058,-0.35868 0,-0.35868 0.05498,0 0.10435,0.104349 0.11956,0.11956 0.02736,0.02736 0.121579,-0.05877 0.23912,0 0.154332,0.07717 0.210656,0.244816 0.278974,0.278974 0.155308,0.07766 0.260752,-0.14319 0.557946,0.07971 0.06545,0.04909 0.186491,0.232732 0.278974,0.278974 0.02376,0.01188 0.05845,-0.01595 0.07971,0 0.09018,0.06763 0.152525,0.166957 0.23912,0.239119 0.0368,0.03066 0.08569,0.04584 0.11956,0.07971 0.04555,0.04555 0.08974,0.164428 0.159414,0.199268 0.180679,0.09034 0.316841,-0.42378 0.398532,-0.478239 0.02212,-0.01474 0.05393,0.0064 0.07971,0 0.01259,-0.0031 0.127013,-0.07225 0.159411,-0.03985 0.01879,0.01879 -0.01879,0.06092 0,0.0797 0.05844,0.05844 0.120865,-0.178361 0.35868,0 0.05314,0.03985 0.07259,0.112446 0.11956,0.159414 0.03387,0.03387 0.08569,0.04584 0.11956,0.07971 0.04697,0.04697 0.08986,0.100005 0.11956,0.159414 0.006,0.01188 -0.0094,0.04925 0,0.03985 0.05301,-0.05302 0.04469,-0.161835 0.11956,-0.199268 0.02376,-0.01188 0.0545,0.0084 0.07971,0 0.1201,-0.04003 0.310246,-0.01349 0.398534,-0.07971 0.03006,-0.02254 0.05314,-0.05314 0.07971,-0.07971 0.03985,-0.03985 0.07447,-0.08574 0.11956,-0.11956 0.01064,-0.008 0.03046,0.0094 0.03985,0 0.02818,-0.02818 0.01783,-0.08391 0,-0.11956 -0.01783,-0.03565 -0.159414,0 -0.11956,0 0.02657,0 0.05594,0.01188 0.07971,0 0.03758,-0.01879 0.0136,-0.08676 0.03985,-0.11956 0.05178,-0.06473 0.159049,-0.163682 0.23912,-0.199268 0.07678,-0.03412 0.156734,-0.06323 0.23912,-0.07971 0.09119,-0.01823 0.21322,0.06575 0.278974,0 0.0094,-0.0094 -0.0094,-0.03046 0,-0.03985 0.02688,-0.02689 0.180628,0.03106 0.199266,0 0.03681,-0.06134 0.03315,-0.14495 0.07971,-0.199266 0.283126,-0.330311 0.770745,-0.578427 0.95648,-0.996333 0.28793,-0.647843 0.319754,-1.381366 0.478239,-2.072371 0.192326,-0.838541 0.417002,-1.669655 0.5978,-2.510758 0.230846,-1.073933 0.57953,-2.414788 0.159414,-3.507091 -0.0011,-0.0028 -0.157514,-0.396632 -0.159414,-0.398532 -0.01381,-0.01381 -0.299961,-0.02307 -0.35868,-0.03985 -0.181202,-0.05177 -0.351552,-0.115996 -0.518091,-0.199266 -0.04181,-0.0209 -0.167458,0.03181 -0.199268,0 -0.01879,-0.01878 0.01188,-0.05594 0,-0.0797 -0.04446,-0.08891 -0.03985,-0.170006 -0.03985,-0.278974 0,-0.03986 0,-0.07971 0,-0.11956 0,-0.01328 0.01328,-0.03985 0,-0.03985 -0.09394,0 -0.185983,0.02657 -0.278974,0.03985 z"
         id="path80" />
      <path
         style="fill:#ce422b;fill-opacity:1;stroke-width:0.264583"
         d="m 47.226159,59.461121 c 1.811744,0.472631 0.08255,0.0122 2.829583,0.797068 0.384263,0.109789 0.769414,0.216562 1.155748,0.318826 0.06548,0.01733 0.13584,0.01606 0.199266,0.03985 0.04485,0.01683 0.07554,0.06084 0.119559,0.07971 0.05035,0.02156 0.10745,0.02254 0.159415,0.03985 0.07647,0.02551 0.132982,0.08642 0.199265,0.11956 0.17236,0.08618 -0.159403,-0.836914 0.07971,-0.717357 0.08552,0.04276 0.0019,0.04352 0.03985,0.11956 0.04201,0.08402 0.138134,0.127945 0.199266,0.199266 0.07437,0.08676 0.118462,0.198168 0.199268,0.278971 0.02101,0.02101 0.05499,0.02339 0.07971,0.03985 0.02445,0.0163 0.09204,0.119559 0.11956,0.119559 0.01423,0 -0.06495,-0.239119 0.11956,-0.239119 0.01328,0 -0.006,0.02797 0,0.03985 0.0084,0.0168 0.02657,0.02657 0.03985,0.03985 0.264353,0.264356 -0.07515,-0.03757 0.159411,0.07971 0.01463,0.0073 0.220348,0.180493 0.23912,0.199265 0.0094,0.0094 -0.0094,0.03046 0,0.03986 0.02772,0.02772 0.07782,-0.07971 0.11956,-0.07971 0.01879,0 0.02763,0.02558 0.03985,0.03985 0.06752,0.07878 0.1259,0.165754 0.199266,0.23912 0.02379,0.02379 0.259368,0.229317 0.278974,0.23912 0.03318,0.01659 0.134133,-0.02527 0.159414,0 0.01529,0.01529 -0.01781,0.153482 0,0.159414 0.126026,0.04201 0.266597,-0.01553 0.398531,0 0.274201,0.03226 0.37718,0.08587 0.5978,0.159412 0.01259,0.0042 0.03046,-0.0094 0.03985,0 0.05749,0.05749 -0.03782,0.283048 0,0.358679 0.03985,0.07971 0.07628,0.161222 0.11956,0.23912 0.332883,0.599194 0.03181,0.04241 0.23912,0.318828 0.05223,0.06964 0.03952,0.118891 0.07971,0.199266 0.08293,0.165859 -0.0028,-0.0426 0.07971,0.03985 0.04307,0.04307 0.0087,0.207965 0.03985,0.23912 0.0094,0.0094 0.02797,-0.006 0.03986,0 0.106661,0.05333 0.295925,0.07376 0.358679,0.199266 0.0767,0.153397 -0.09374,0.193447 0.159412,0.478239 0.248864,0.279972 0.684056,0.367959 1.036188,0.438386 0.144727,0.02895 0.486264,0.02556 0.597799,0.159414 0.217498,0.260998 0.345948,0.611775 0.557945,0.876773 0.142743,0.178428 0.834438,0.752248 0.916626,0.916626 0.01188,0.02376 -0.01188,0.05594 0,0.07971 0.0168,0.03361 0.0629,0.0461 0.07971,0.07971 0.02548,0.05095 0.04722,0.246489 0.07971,0.278974 0.01879,0.01878 0.05594,-0.01188 0.0797,0 0.07751,0.03876 0.173334,0.241028 0.199269,0.318826 0.06193,0.185809 -0.06583,0.144182 0.0797,0.318828 0.04252,0.05103 0.06219,0.125944 0.11956,0.159411 0.273402,0.159486 1.217457,0.322689 1.355011,0.5978 0.04693,0.09386 -0.04003,0.262599 0,0.35868 0.08881,0.213143 0.288303,0.393448 0.318828,0.637653 0.0145,0.115943 -0.05651,0.405062 0,0.518094 0.02143,0.04284 0.05829,0.07672 0.07971,0.11956 0.01188,0.02376 -0.01188,0.05594 0,0.07971 0.03303,0.06606 0.04758,0.135001 0.07971,0.199266 0.08865,0.177292 0.695367,0.342185 0.876773,0.478239 0.05325,0.03994 -0.03229,0.294092 0,0.35868 0.07272,0.145447 0.446154,0.317812 0.47824,0.47824 0.01087,0.05442 -0.03917,0.319513 0,0.358679 0.03036,0.03036 0.129463,0.01982 0.159414,0.07971 0.05929,0.118586 -0.0411,0.552974 0,0.717357 0.01754,0.07022 0.09246,0.279767 0.03985,0.358679 -0.06522,0.09784 -0.43828,0.23944 -0.398532,0.35868 0.02122,0.06368 0.434308,0.840997 0.35868,0.916628 -0.0488,0.0488 -0.302591,0.128415 -0.278974,0.199265 0.04638,0.139142 0.05429,0.04158 0.159414,0.199266 0.06407,0.09611 0.119454,0.319141 0.07971,0.438388 -0.06905,0.207143 -0.327451,0.382918 -0.518094,0.47824 -0.02997,0.01498 -0.09191,-0.01844 -0.11956,0 -0.07078,0.04718 -0.11779,0.134969 -0.199266,0.159411 -0.483766,0.145132 -1.005168,0.116615 -1.474573,-0.03985 -0.06787,-0.02262 -0.133892,-0.05065 -0.199265,-0.07971 -0.05429,-0.02413 -0.111885,-0.04406 -0.159412,-0.07971 -0.01064,-0.008 0.01328,-0.03985 0,-0.03985 -0.03985,0 0.01569,0.08293 0,0.119559 -0.03051,0.0712 -0.08113,0.132012 -0.11956,0.199269 -0.07351,0.128648 -0.204271,0.248089 -0.35868,0.278971 -0.227258,0.04545 -0.534937,0.01572 -0.757213,-0.03985 -0.07572,-0.01895 -0.05301,0.01315 -0.07971,0.03985 -0.03758,0.03757 -0.106278,0 -0.159414,0 -0.03917,0 -0.296455,-0.02238 -0.318826,0 -0.02657,0.02657 0.02657,0.132845 0,0.159414 -0.01056,0.01056 -0.10315,0 -0.11956,0 -0.07965,0 -0.590573,-0.0072 -0.597799,0 -0.0094,0.0094 0.0094,0.03046 0,0.03985 -0.02556,0.02556 -0.258448,0 -0.278974,0 -0.160875,0 -0.268415,0.03985 -0.438386,0.03985 -0.05314,0 -0.135649,-0.04753 -0.159414,0 -0.0073,0.01461 0.01677,0.142647 0,0.159414 -0.0094,0.0094 -0.0288,-0.0074 -0.03985,0 -0.131352,0.08757 -0.192003,0.237305 -0.35868,0.278974 -0.19908,0.04977 -0.398634,-0.07971 -0.597799,-0.07971 -0.204227,0 -0.08375,0.01463 -0.278972,0.07971 -0.07639,0.02545 -0.805992,0.02458 -0.916627,0 -0.177888,-0.03953 -0.212744,-0.11077 -0.358677,-0.159414 -0.191905,-0.06397 -0.489956,0.02882 -0.677508,0.03985 -0.238707,0.01405 -0.47824,0 -0.71736,0 -0.311086,0 -0.512651,-0.176443 -0.797065,-0.11956 -0.123375,0.02469 -0.215043,0.107522 -0.318826,0.159412 -0.03565,0.01783 -0.07971,0 -0.11956,0 -0.159414,0 -0.321923,0.03126 -0.478239,0 -0.331497,-0.0663 -0.148693,-0.0565 -0.398534,-0.199266 -0.05801,-0.03314 -0.142245,-0.0512 -0.199266,-0.07971 -0.142975,-0.07149 -0.459478,0.06713 -0.597799,0.07971 -0.158758,0.01445 -0.320429,0.02254 -0.47824,0 -0.04159,-0.0059 -0.08986,-0.01016 -0.11956,-0.03985 -0.09393,-0.09394 -0.150863,-0.219536 -0.23912,-0.318826 -0.192384,-0.216432 -0.126696,-0.09041 -0.278974,-0.318825 -1.9e-4,-2.65e-4 -0.04925,-0.11956 -0.07971,-0.11956 -0.227838,0 -0.803917,0.395105 -1.036185,0.278971 -0.02376,-0.01188 -0.02521,-0.07131 0,-0.07971 0.03781,-0.01259 0.08211,0.01363 0.11956,0 0.111665,-0.0406 0.206103,-0.121838 0.318826,-0.159414 0.15286,-0.05095 0.802471,-0.140388 0.916625,-0.159411 0.226206,-0.0377 0.450488,-0.08713 0.677505,-0.11956 0.0526,-0.0075 0.106278,0 0.159414,0 0.01328,0 0.05314,0 0.03986,0 -0.360836,0 -0.687745,-0.01503 -1.036188,-0.11956 -0.02416,-0.0072 -0.242443,-0.05536 -0.278971,-0.07971 -0.01106,-0.0074 0.0042,-0.02725 0,-0.03985 -0.0894,-0.268195 0.03166,-0.57323 0.119559,-0.836919 0.02262,-0.06787 0.06236,-0.129866 0.07971,-0.199269 0.02524,-0.101007 -0.0076,-0.231555 0.07971,-0.318825 0.132257,-0.132257 1.213464,-0.05772 1.235453,-0.07971 0.0094,-0.0094 -0.0059,-0.02797 0,-0.03985 0.05881,-0.117626 0.182031,-0.190108 0.278974,-0.278974 0.492191,-0.451175 -0.01291,0.03425 0.47824,-0.35868 0.08802,-0.07042 0.138298,-0.188709 0.23912,-0.23912 0.06204,-0.03102 0.478239,0.03295 0.478239,0 0,-0.01328 -0.02797,0.006 -0.03985,0 -0.07926,-0.03963 -0.127037,-0.134511 -0.159414,-0.199265 -0.03052,-0.06104 -0.07102,-0.03117 -0.11956,-0.07971 -0.0094,-0.0094 0.03046,0.0094 0.03985,0 0.02101,-0.02101 0.01884,-0.0587 0.03985,-0.07971 0.01167,-0.01167 0.123687,-0.01373 0.07971,-0.07971 -0.07906,-0.118592 -0.264797,-0.1661 -0.358679,-0.23912 -0.0284,-0.02209 -0.177443,-0.195474 -0.199266,-0.23912 -0.01593,-0.03188 0.01593,-0.08768 0,-0.11956 -0.04037,-0.08074 -0.105265,-0.118041 -0.159414,-0.199265 -0.02863,-0.04294 0.01228,-0.232984 -0.159414,-0.318826 -0.02376,-0.01188 -0.05594,0.01188 -0.07971,0 -0.01188,-0.006 -0.0094,-0.03046 0,-0.03985 0.0094,-0.0094 0.03391,0.01188 0.03985,0 0.01188,-0.02376 -0.01188,-0.05594 0,-0.07971 0.0059,-0.01188 0.03046,0.0094 0.03985,0 0.03202,-0.03202 -0.03577,-0.147172 -0.03985,-0.159414 -0.02392,-0.07174 0.02392,-0.167383 0,-0.23912 -0.138943,-0.416827 -0.682246,-0.42826 -0.996333,-0.637653 -0.106106,-0.07074 -0.226867,-0.258694 -0.35868,-0.278972 -0.324813,-0.04997 -0.705625,0 -1.036185,0 -0.09299,0 -0.190754,0.02941 -0.278974,0 -0.02521,-0.0084 0.0084,-0.0545 0,-0.07971 -0.0094,-0.02818 -0.03617,-0.05023 -0.03985,-0.07971 -0.03872,-0.309737 0.06137,-0.652798 -0.03985,-0.956479 -0.01638,-0.04912 -0.153294,-0.245237 -0.07971,-0.318826 0.02818,-0.02818 0.08011,0.0056 0.11956,0 0.06706,-0.0096 0.131943,-0.03237 0.199266,-0.03985 0.113826,-0.01265 0.497443,0.05018 0.5978,0 0.08195,-0.04097 0.201869,-0.244327 0.239119,-0.318826 0.01879,-0.03757 0.01016,-0.08986 0.03985,-0.11956 0.01624,-0.01624 0.435295,-0.06897 0.47824,-0.07971 0.07602,-0.019 0.164655,-0.122179 0.239119,-0.159411 0.02416,-0.01209 0.102862,-0.02315 0.11956,-0.03986 0.02657,-0.02657 -0.02657,-0.132844 0,-0.159414 0.03691,-0.03691 0.429779,0.02944 0.518094,0 0.13665,-0.04555 0.04049,-0.04049 0.159414,-0.159411 0.05698,-0.05698 0.383847,-0.195067 0.398532,-0.23912 0.0084,-0.02522 -0.0073,-0.05416 0,-0.07971 0.100867,-0.353026 0.264461,-0.695913 0.239119,-1.076037 -0.01286,-0.192998 -0.103833,-0.372681 -0.159411,-0.557948 -0.02416,-0.08047 -0.03648,-0.167074 -0.07971,-0.23912 0.09834,-0.120655 -0.108403,-0.06855 -0.11956,-0.07971 -0.0094,-0.0094 0.0074,-0.0288 0,-0.03985 -0.03126,-0.04689 -0.09435,-0.06915 -0.11956,-0.11956 -0.01879,-0.03757 -0.01902,-0.08308 -0.03985,-0.119559 -0.06865,-0.120135 -0.177498,-0.195583 -0.23912,-0.318826 -0.03187,-0.06374 0.04949,-0.269341 0,-0.318826 -0.01204,-0.01204 -0.248687,0.01011 -0.278974,0 -0.03564,-0.01188 -0.04844,-0.05886 -0.0797,-0.07971 -0.02922,-0.01947 -0.136687,-0.01712 -0.159414,-0.03985 -0.01992,-0.01992 0.01992,-0.09963 0,-0.119559 -0.03426,-0.03427 -0.230672,0.01206 -0.278975,0 -0.08486,-0.02122 -0.08367,-0.163383 -0.119559,-0.199269 -0.0094,-0.0094 -0.02752,0.0049 -0.03985,0 -0.05516,-0.02207 -0.105124,-0.05558 -0.159414,-0.0797 -0.161975,-0.07199 -0.351049,-0.143585 -0.518091,-0.199266 -0.02522,-0.0084 -0.0545,0.0084 -0.07971,0 -0.03564,-0.01188 -0.04844,-0.05886 -0.0797,-0.07971 -0.07415,-0.04943 -0.15638,-0.08646 -0.23912,-0.11956 -0.162407,-0.06496 -0.467294,-0.05781 -0.557946,-0.23912 -0.05313,-0.106249 0.01349,-0.430469 0,-0.518091 0.01841,-0.14785 -0.09676,-0.261729 -0.119559,-0.398534 -0.04057,-0.243425 -0.0016,-0.655791 0.03985,-0.876774 0.02865,-0.152826 0.131598,-0.285403 0.159414,-0.438385 0.01302,-0.07159 0.03146,-0.463566 0,-0.557946 -0.006,-0.01783 -0.03145,-0.02305 -0.03985,-0.03985 -0.01878,-0.03757 -0.01823,-0.08354 -0.03985,-0.11956 -0.134643,-0.224406 -0.412977,-0.0543 -0.478239,-0.11956 -0.0094,-0.0094 0.0094,-0.03046 0,-0.03985 -0.0094,-0.0094 -0.03392,0.01188 -0.03985,0 -0.01188,-0.02376 0,-0.05314 0,-0.07971 -0.09299,-0.0797 -0.185984,-0.159411 -0.278974,-0.23912 z"
         id="path81" />
      <path
         style="fill:#ce422b;fill-opacity:1;stroke-width:0.264583"
         d="m 67.591196,82.576037 c 1.306232,-1.536695 2.436003,-3.272925 3.865768,-4.702691 0.01879,-0.01879 -0.0029,0.0533 0,0.07971 0.01183,0.10645 0.01884,0.213805 0.03986,0.318829 0.05278,0.263898 0.162425,0.44441 0.278974,0.677505 0.0245,0.04899 0.0011,0.120682 0.03985,0.159414 0.05636,0.05636 0.159742,-0.0072 0.23912,0 0.08048,0.0073 0.159697,0.05474 0.23912,0.03985 0.140629,-0.02635 0.281853,-0.07661 0.398534,-0.159412 0.737282,-0.523232 1.459613,-1.270307 1.95281,-2.032518 0.112787,-0.174305 0.441404,-0.959496 0.637654,-1.155745 0.01878,-0.01879 0,0.05314 0,0.0797 0,0.06642 -0.0042,0.132975 0,0.199266 0.01016,0.16251 0.05242,1.008896 0.199265,1.155748 0.02818,0.02818 0.08392,0.01783 0.11956,0 0.03361,-0.0168 0.05143,-0.05497 0.07971,-0.07971 0.162009,-0.141758 0.384254,-0.407056 0.597799,-0.478239 0.113425,-0.03781 0.240745,-0.01966 0.35868,0 0.08974,0.01495 0.08053,0.158586 0.199266,0.03985 0.13988,-0.13988 0.65837,-0.85711 0.836919,-0.916625 0.09852,-0.03284 0.350028,-0.01768 0.438386,0 0.02606,0.0052 -0.01879,0.06092 0,0.0797 0.03757,0.03757 0.106275,0 0.159414,0 0.106275,0 0.214614,0.02085 0.318825,0 0.07651,-0.01529 0.574569,-0.260149 0.757214,-0.199265 0.09428,0.03143 -0.160785,0.355343 -0.03985,0.398531 0.671322,0.23976 1.373251,0.286673 2.072372,0.398534 0.369906,0.05918 -0.08915,0.03985 0.398532,0.03985 0.01328,0 0.03046,-0.0094 0.03985,0 0.0094,0.0094 -0.0094,0.04925 0,0.03985 0.163108,-0.163108 0.0055,-0.09071 0.11956,-0.318826 0.03804,-0.07608 0.115649,-0.126328 0.159414,-0.199266 0.03681,-0.06135 0.03502,-0.143404 0.07971,-0.199268 0.01659,-0.02074 0.05314,0 0.07971,0 0.06479,0 0.183986,-0.02757 0.23912,0 0.125241,0.06262 0.08407,0.247991 0.278974,0.199268 0.253688,-0.06342 0.415632,-0.31429 0.5978,-0.478239 0.05781,-0.05203 0.480303,-0.197202 0.557945,-0.11956 0.0094,0.0094 -0.01259,0.03565 0,0.03985 0.03781,0.0126 0.08073,-0.009 0.11956,0 0.135141,0.03119 0.266277,0.0778 0.398534,0.11956 0.120176,0.03795 0.240676,0.07531 0.35868,0.11956 0.241292,0.09049 0.52814,0.298731 0.557945,0.23912 0.158266,-0.316532 0.373645,-2.020072 0.71736,-2.19193 0.02376,-0.01188 0.05314,0 0.07971,0 0.252095,0 0.01913,-0.03062 0.318829,0.23912 0.05758,0.05182 0.14097,0.06855 0.199265,0.11956 0.04999,0.04374 0.07513,0.11004 0.11956,0.159411 0.163873,0.182081 0.627624,0.655074 0.876774,0.71736 0.03866,0.0097 0.08538,0.0205 0.11956,0 0.42156,-0.252937 0.756306,-0.677204 1.23545,-0.83692 0.114494,-0.03816 0.18592,0.16464 0.23912,0.23912 0.03276,0.04586 0.08969,0.07177 0.11956,0.11956 0.175869,0.281392 0.03551,0.647057 0.07971,0.956479 0.006,0.04159 0.03162,0.07837 0.03985,0.11956 0.01016,0.0508 0.01146,0.201264 0.03985,0.23912 0.06936,0.09247 0.129911,0.06694 0.199266,0.159414 0.03565,0.04753 0.0377,0.117404 0.07971,0.159414 0.0094,0.0094 0.03565,-0.01259 0.03985,0 0.04561,0.136816 -0.05807,0.818706 0,0.876771 0.0094,0.0094 0.02923,-0.008 0.03985,0 0.123984,0.09299 0.196913,0.238533 0.35868,0.278974 0.02577,0.0065 0.05594,-0.01188 0.0797,0 0.06177,0.03088 0.01138,0.352986 0.07971,0.438386 0.37415,0.467685 -0.160311,-0.310436 0.199268,0.318825 0.02796,0.04894 0.09435,0.06915 0.11956,0.11956 0.140132,0.280265 -0.360087,0.978517 -0.478239,1.155748 -0.09425,0.141372 -0.201428,0.360839 -0.318828,0.47824 -0.0094,0.0094 -0.03046,-0.0094 -0.03985,0 -0.01878,0.01878 0.01879,0.06092 0,0.0797 -0.02439,0.0244 -0.159062,0.0529 -0.199268,0.07971 -0.07753,0.05169 -0.332767,0.263499 -0.398532,0.278974 -0.142245,0.03347 -0.292258,0 -0.438385,0 -0.265689,0 -0.534048,0.03757 -0.797068,0 -0.117626,-0.0168 -0.21255,-0.106275 -0.318826,-0.159414 -0.05314,-0.02657 -0.111884,-0.04406 -0.159414,-0.07971 -0.01064,-0.008 0.01328,-0.03985 0,-0.03985 -0.06571,0 -0.03452,0.138075 -0.03985,0.159414 -0.01251,0.0501 -0.260924,0.345787 -0.278974,0.35868 -0.05821,0.04158 -0.132845,0.05314 -0.199266,0.07971 -0.418925,0.167571 -0.333094,0.174318 -0.757213,0.199268 -0.273416,0.01609 -0.445202,2.64e-4 -0.71736,-0.07971 -0.09706,-0.02855 -0.181218,-0.09349 -0.278974,-0.11956 -0.285909,-0.07624 -0.623366,-0.07767 -0.916625,-0.11956 -0.305993,-0.04371 -0.60679,-0.102346 -0.916625,-0.11956 -0.395552,-0.02199 -0.799516,0 -1.195599,0 -0.200512,0 -0.946224,-0.04848 -1.115894,0 -0.308261,0.08807 -0.289846,0.185986 -0.637651,0.398534 -0.08633,0.05276 -0.188484,0.07431 -0.278974,0.11956 -0.274471,0.137236 -0.520798,0.349313 -0.797065,0.478239 -0.08764,0.0409 -0.18918,0.04379 -0.278974,0.07971 -0.110321,0.04413 -0.208505,0.115284 -0.318826,0.159414 -0.367151,0.14686 -0.808392,0.30634 -1.195599,0.398534 -0.688374,0.163896 -1.771147,0.282898 -2.470904,0.159411 -0.120613,-0.02127 -0.23912,-0.05314 -0.35868,-0.07971 -0.146129,-0.02657 -0.291883,-0.05529 -0.438388,-0.07971 -0.09266,-0.01545 -0.189312,-0.01183 -0.278971,-0.03985 -0.124881,-0.03903 -0.236416,-0.112837 -0.35868,-0.159414 -1.14844,-0.437499 0.02193,0.05495 -0.757214,-0.278972 -0.202115,-0.08662 -0.395134,-0.19364 -0.597799,-0.278974 -0.143306,-0.06034 -0.296296,-0.09626 -0.438386,-0.159414 -0.09787,-0.0435 -0.181729,-0.11453 -0.278974,-0.159411 -0.117067,-0.08844 -0.271052,-0.06493 -0.398531,-0.11956 -0.116935,-0.05012 -0.189997,-0.167061 -0.318828,-0.199268 -0.193482,-0.04837 -0.727776,0 -0.956479,0 -0.04395,0 -0.510972,-0.0071 -0.518092,0 -0.02101,0.02101 -0.01884,0.0587 -0.03985,0.07971 -0.01878,0.01879 -0.0545,-0.0084 -0.07971,0 -0.05636,0.01879 -0.117406,0.0377 -0.159414,0.07971 -0.0094,0.0094 0.01188,0.03391 0,0.03985 -0.02376,0.01188 -0.05594,-0.01188 -0.0797,0 -0.01188,0.006 0.0074,0.0288 0,0.03985 -0.02085,0.03126 -0.06575,0.04482 -0.07971,0.07971 -0.04569,0.114228 0.04842,0.285541 0,0.398531 -0.02617,0.06105 -0.0934,0.09836 -0.11956,0.159414 -0.02093,0.04884 0.02948,0.1152 0,0.159414 -0.02085,0.03126 -0.0629,0.0461 -0.07971,0.07971 -0.02967,0.05934 -0.01244,0.132001 -0.07971,0.199266 -0.03387,0.03387 -0.08569,0.04584 -0.11956,0.07971 -0.04677,0.04677 0.01384,0.06587 -0.07971,0.159411 -0.02252,0.02252 -0.154734,0.129726 -0.199266,0.159415 -0.07358,0.04905 -0.165545,0.07051 -0.23912,0.11956 -0.07292,0.04861 -0.004,0.05081 -0.11956,0.07971 -0.194315,0.04858 -0.106391,-0.01516 -0.438385,0.07971 z"
         id="path82" />
    </g>
  </g>
</svg>
