<?xml version="1.0" encoding="UTF-8" standalone="no"?>
<!-- Created with Inkscape (http://www.inkscape.org/) -->

<svg
   width="96mm"
   height="96.000008mm"
   viewBox="0 0 96 96.000008"
   version="1.1"
   id="svg1"
   sodipodi:docname="logo.svg"
   inkscape:version="1.4.4 (dcaf3e7d9e, 2026-05-05)"
   xmlns:inkscape="http://www.inkscape.org/namespaces/inkscape"
   xmlns:sodipodi="http://sodipodi.sourceforge.net/DTD/sodipodi-0.dtd"
   xmlns="http://www.w3.org/2000/svg"
   xmlns:svg="http://www.w3.org/2000/svg">
  <sodipodi:namedview
     id="namedview1"
     pagecolor="#ffffff"
     bordercolor="#000000"
     borderopacity="0.25"
     inkscape:showpageshadow="2"
     inkscape:pageopacity="0.0"
     inkscape:pagecheckerboard="0"
     inkscape:deskcolor="#d1d1d1"
     inkscape:document-units="mm"
     inkscape:zoom="2.6901826"
     inkscape:cx="153.52118"
     inkscape:cy="125.82789"
     inkscape:window-width="1512"
     inkscape:window-height="790"
     inkscape:window-x="0"
     inkscape:window-y="0"
     inkscape:window-maximized="1"
     inkscape:current-layer="layer1" />
  <defs
     id="defs1">
    <linearGradient
       id="swatch2"
       inkscape:swatch="solid">
      <stop
         style="stop-color:#307ab6;stop-opacity:1;"
         offset="0"
         id="stop2" />
    </linearGradient>
    <clipPath
       clipPathUnits="userSpaceOnUse"
       id="clipPath74">
      <path
         id="path75"
         style="fill:#306998;fill-opacity:1;stroke-width:0.132291"
         d="m 16,20 v 58 l 1.5,1.000001 1.5,0.999998 2.5,-1.43e-4 1.25,-0.999855 L 24,78 24.000028,46.700453 42.499674,79.99971 h 5.500439 l 2.49959,-2.499587 -17.625798,-29.52378 C 41.358336,47.512298 48.0002,40.49717 48.000113,32.000058 48.000145,23.163456 40.836657,15.999969 32.000058,16 h -5.29e-4 -7.999501 -4.000014 L 17,17 Z m 16.000058,4.000028 c 4.418298,-1.5e-5 8.000042,3.581729 8.000026,8.00003 1.6e-5,4.418298 -3.581728,8.000042 -8.000026,8.000026 -4.418301,1.6e-5 -8.000045,-3.581728 -8.00003,-8.000026 -1.6e-5,-4.418301 3.581729,-8.000046 8.00003,-8.00003 z" />
    </clipPath>
    <clipPath
       clipPathUnits="userSpaceOnUse"
       id="clipPath83">
      <path
         d="m 52.499755,16 -1.999877,0.499711 -1.999877,2.500106 v 52.999867 l 3.999754,6.000149 4.000272,1.999877 H 87.49969 l 3.00033,-1.999877 V 74.000077 L 87.49969,71.999684 H 62.499661 l -3.999754,-1.99988 -1.99988,-2.436542 V 18.999817 l -2.000393,-2.500106 z"
         style="fill:#b0bec5;fill-opacity:1;stroke-width:0.264583"
         id="path84" />
    </clipPath>
  </defs>
  <g
     id="layer1">
    <rect
       style="fill:#162537;fill-opacity:1;stroke-width:0.198438"
       id="rect3"
       width="96"
       height="96"
       x="0"
       y="5.5511151e-17" />
    <rect
       style="mix-blend-mode:hard-light;fill:#1c334a;fill-opacity:0.148574;stroke-width:0.27429"
       id="rect1-3"
       width="80"
       height="76"
       x="4"
       y="14" />
    <rect
       style="mix-blend-mode:normal;fill:#1c334a;fill-opacity:1;stroke-width:0.27429"
       id="rect1"
       width="80"
       height="76"
       x="8"
       y="10" />
    <path
       d="M 49.999756,18 47.999878,18.499711 46,20.999817 v 52.999866 l 3.999756,6.00015 4.000272,1.999878 H 84.99969 l 3.00033,-1.999878 V 76.000077 L 84.99969,73.999683 H 59.999662 L 55.999906,71.999805 54.000028,69.563261 V 20.999817 l -2.000394,-2.500106 z"
       style="mix-blend-mode:multiply;fill:#285176;fill-opacity:0.31051;stroke-width:0.264583"
       id="path9-1" />
    <path
       d="M 52.499756,16 50.499878,16.499711 48.5,18.999817 v 52.999866 l 3.999756,6.00015 4.000272,1.999878 H 87.49969 l 3.00033,-1.999878 V 74.000077 L 87.49969,71.999683 H 62.499662 L 58.499906,69.999805 56.500028,67.563261 V 18.999817 l -2.000394,-2.500106 z"
       style="fill:#316c9b;fill-opacity:1;stroke-width:0.264583"
       id="path9" />
    <path
       id="path11-3"
       style="mix-blend-mode:multiply;fill:#306998;fill-opacity:0.177971;stroke-width:5.932;stroke-dasharray:none;paint-order:stroke markers fill"
       d="m 19,22 v 58 l 1.5,1 1.5,1 2.5,-1.44e-4 2.54654,-0.0058 L 27,80 26.559848,49.360722 l 0.826642,-0.513175 0.826641,0.587285 17.286543,32.56488 h 5.50044 l 2.2078,-0.41154 0.291789,-2.08805 L 35.532616,49.78132 C 44.017048,49.317276 51.000201,42.49717 51.000114,34.000057 51.000145,25.163456 43.836658,17.999969 35.000057,18 H 33 27.000028 23.000014 19 Z m 16.150293,6.804436 c 4.4183,-1.5e-5 4.967963,0.159457 4.967947,4.577757 1.5e-5,4.4183 -3.179348,9.290304 -7.597648,9.290289 -4.4183,1.6e-5 -4.812116,-0.0034 -4.812101,-4.42165 0.123193,-10.825185 -1.822732,-9.405342 7.441802,-9.446396 z"
       sodipodi:nodetypes="ccccccccccccccccscccccccccc" />
    <path
       id="path11"
       style="fill:#307ab6;stroke-width:0.132291;fill-opacity:1"
       d="m 21,20 v 58 l 1.5,1 1.5,1 2.5,-1.44e-4 2.54654,-0.0058 L 29,78 28.559848,47.360722 l 0.826642,-0.513175 0.826641,0.587285 17.286543,32.56488 h 5.50044 l 2.2078,-0.41154 0.291789,-2.08805 L 37.532616,47.78132 C 46.017048,47.317276 53.000201,40.49717 53.000114,32.000057 53.000145,23.163456 45.836658,15.999969 37.000057,16 H 35 29.000028 25.000014 21 Z m 16.150293,6.804436 c 4.4183,-1.5e-5 4.967963,0.159457 4.967947,4.577757 1.5e-5,4.4183 -3.179348,9.290304 -7.597648,9.290289 -4.4183,1.6e-5 -4.812116,-0.0034 -4.812101,-4.42165 0.123193,-10.825185 -1.822732,-9.405342 7.441802,-9.446396 z"
       sodipodi:nodetypes="ccccccccccccccccscccccccccc" />
    <g
       id="g74"
       clip-path="url(#clipPath74)" />
  </g>
</svg>
